<?xml version="1.0" encoding="UTF-8" standalone="no"?>
<svg
   xmlns:dc="http://purl.org/dc/elements/1.1/"
   xmlns:cc="http://creativecommons.org/ns#"
   xmlns:rdf="http://www.w3.org/1999/02/22-rdf-syntax-ns#"
   xmlns:svg="http://www.w3.org/2000/svg"
   xmlns="http://www.w3.org/2000/svg"
   xmlns:sodipodi="http://sodipodi.sourceforge.net/DTD/sodipodi-0.dtd"
   xmlns:inkscape="http://www.inkscape.org/namespaces/inkscape"
   width="7.84722in"
   height="3in"
   viewBox="0 0 565 216"
   id="svg3032"
   version="1.1"
   inkscape:version="0.48.3.1 r9886"
   sodipodi:docname="zen.svg">
  <metadata
     id="metadata3039">
    <rdf:RDF>
      <cc:Work
         rdf:about="">
        <dc:format>image/svg+xml</dc:format>
        <dc:type
           rdf:resource="http://purl.org/dc/dcmitype/StillImage" />
      </cc:Work>
    </rdf:RDF>
  </metadata>
  <defs
     id="defs3037" />
  <sodipodi:namedview
     pagecolor="#ffffff"
     bordercolor="#666666"
     borderopacity="1"
     objecttolerance="10"
     gridtolerance="10"
     guidetolerance="10"
     inkscape:pageopacity="0"
     inkscape:pageshadow="2"
     inkscape:window-width="1680"
     inkscape:window-height="973"
     id="namedview3035"
     showgrid="false"
     inkscape:zoom="2.190443"
     inkscape:cx="442.9363"
     inkscape:cy="139.12977"
     inkscape:window-x="0"
     inkscape:window-y="24"
     inkscape:window-maximized="1"
     inkscape:current-layer="svg3032" />
  <path
     id="bombillo"
     style="fill:#ff0000;stroke:#000000;stroke-width:1"
     d="m 263.55007,114.525 c 0.71898,2.94932 0.10168,6.21107 -1.86604,8.55729 -2.02126,2.68324 -5.26826,4.51128 -6.28811,7.87188 -0.75146,2.97405 0.70526,6.03061 2.50189,8.33342 5.11458,6.27915 15.79625,6.89636 21.44702,1.02026 2.47599,-2.65157 3.80768,-6.53751 3.06208,-10.13059 -0.91913,-3.6007 -4.40872,-5.5659 -6.32285,-8.55838 -1.43997,-2.15961 -2.12756,-4.68993 -3.03399,-7.09388 -1.26666,0.31667 -2.53333,0.63334 -3.8,0.95 0.11092,2.27298 -0.29952,4.7497 0.88357,6.81358 1.08365,1.60241 3.05506,2.17846 4.81643,2.68642 0.17042,2.83628 2.17911,5.53077 1.28188,8.40794 -0.73685,1.91356 -2.79513,2.81844 -4.54767,3.58993 -3.00015,1.23589 -6.8579,1.25032 -9.31807,-1.11369 -1.23427,-1.14415 -2.05933,-2.66164 -2.61614,-4.23417 1.58333,-1.26667 3.16666,-2.53334 4.75,-3.8 0.63334,0.31666 1.26666,0.63333 1.9,0.95 0.95,-4.75001 1.9,-9.50001 2.85,-14.25001 -1.9,0 -3.8,0 -5.7,0 z m 7.6,10.45 c 0,3.48334 0,6.96667 0,10.45001 1.73102,-0.29959 3.9679,-1.00354 4.33662,-2.98507 0.23093,-2.29859 -1.403,-4.24601 -2.79273,-5.89176 -0.49053,-0.54735 -1.00742,-1.07086 -1.54389,-1.57318 z m -1.9,0.95001 c -0.86395,1.2267 -1.54262,2.85131 -0.36396,4.14002 0.53289,1.25188 0.32574,-0.18913 0.36396,-0.7329 0,-1.13571 0,-2.27142 0,-3.40712 z m -5.7,4.75 c -0.95,0.31666 -1.9,0.63333 -2.85,0.95 0.99314,2.24651 2.58935,4.78957 5.29494,5.01113 1.49311,0.10792 2.93504,-0.47989 4.20506,-1.21113 -1.225,-0.875 -2.45,-1.75 -3.675,-2.625 -0.32193,0.0893 -1.0886,1.01493 -1.075,0.4732 -0.10169,-0.47548 0.2493,-1.18464 -0.27367,-1.44265 -0.54211,-0.38519 -1.08422,-0.77037 -1.62633,-1.15555 z m 1.9,1.35 c 0.42923,0.16611 0.84659,0.92754 1.28495,0.63601 0.52169,-0.34533 1.04337,-0.69068 1.56505,-1.03601 -0.95,-0.31667 -1.9,-0.63334 -2.85,-0.95 0,0.45 0,0.9 0,1.35 z m 3.8,-0.4 c 0.27726,0.16557 0.8713,1.09593 0.95,0.78213 0.14242,-0.65493 -0.0821,-0.94293 -0.75537,-0.78213 -0.0649,0 -0.12975,0 -0.19463,0 z m 5.69971,-18.05113 5.69868,0.94978 -5.69868,0 c 0.75033,2.20349 1.2917,4.60644 2.5929,6.56298 2.03253,3.0583 5.52772,4.70142 6.51549,9.58329 0.4654,2.25098 0.11398,4.55894 -0.82631,6.64846 -3.79912,8.46254 -13.86679,10.3811 -21.65499,6.51549 -7.23732,-3.59017 -10.21013,-11.10293 -4.53995,-17.63742 2.00404,-2.31746 3.79913,-3.69464 6.5155,-5.02434 -0.82631,-4.42597 -0.4369,-4.50196 -3.79912,-7.59824 l 14.2467,0 0,-3.79912 z"
     inkscape:label="#bombillo">
    <animate
             atributetype="XML"
             attributeName="fill"
             values="#ff0000;#00ff00;#0000ff;#ff0000"
             dur="4s"
             repeatCount="indefinite"
             begin="bombillo.click"
             end="bombillo.click"
             ></animate>
  </path>
  <path
     id="Selección"
     style="fill:#000000;stroke:#000000;stroke-width:1"
     d="m 330,159.77476 1,1 0,-1 z M 169.80921,133.74175 181.93399,135.54952 165,149.77476 l 32,-5 -8,20 23,-16 0,-2 -19,-11.57 -6,-6.43 c -5.07,0.67 -14.20079,1.12699 -17.19079,4.96699 z M 338,123.50476 l -21,-10.67 c -25.97,-9.93 -57.07,-12.4 -84.09,-5.19 -19.82,5.29 -28.4,10.45 -45.91,20.13 5.48,7.03 18.39,15.01 26.91,17.85 l 10.09,2.31 11,3.53 24,1.98 7,0 c 15.07,0.8 19.28,0.42 33.91,-2.44 l 8.1,-1.47 8.99,-3.4 c 9.96,-3.36 26.61,-8.98 34,-16.36 z M 269,0.77475501 269,101.77476 c 17.83,0.01 38.84,4.63 55,12.03 l 30,14.97 0,2 c -19.54,12.6 -52.42,25.51 -76,24.99 -12.13,-0.27 -30.38,-0.46 -42,-2.42 -4.07,-0.69 -17.28,-5.28 -19.77,-4.65 -2.39,0.6 -2.9,3.02 -3.41,5.08 l -2.82,15 18,-14 22,22 -3,-15 3,7 11,-10 1,14 7,-9 3,10 4,-10 c 5.42,1.88 15.85,10.72 20,15 l -2,-15 24,13 -6,-16 31,12 -20,-16 26,5.21 17,2.79 -34,-17 9,0.66 6,-0.62 12,0 18,-1.04 c -6.21,-1.63 -20.69,-4.98 -25,-9 6.33,0.32 10.17228,-0.82194 15.89228,-2.45194 l -13.86072,-5.51578 26.68844,3.97772 14.28,3.99 -35,1 28,10.04 -10.76301,0.18261 c -3.82304,0.54827 -8.71005,0.46086 -13.33266,0.59608 -7.18175,0.0809 -12.10944,-0.37738 -23.94562,0.72478 L 365,161.69476 l 12,7.08 -30,-5.42 -16,-2.58 21,17 -38,-14 8,17 -26,-14 3,16 -22,-17 -6,12 -2,-11 -10,11 0,-15 -7.86,9.41 1.86,9.59 -18,-17 -7.91,-5.7 -6.17,3.42 -12.92,9.28 4,-21 -26,17 8,-21 -35,6 c 3.39,-6.16 11.27273,-12.80388 17.64273,-15.90388 L 155,133.77476 l 29,-6.6 25,-13.64 c 19.09,-7.87 38.54,-11.31 59,-11.76 l -1,-34.000005 0,-66.99999999 z" />
</svg>
