<?xml version="1.0" encoding="UTF-8" standalone="no"?>
<svg
   xmlns:dc="http://purl.org/dc/elements/1.1/"
   xmlns:cc="http://creativecommons.org/ns#"
   xmlns:rdf="http://www.w3.org/1999/02/22-rdf-syntax-ns#"
   xmlns:svg="http://www.w3.org/2000/svg"
   xmlns="http://www.w3.org/2000/svg"
   xmlns:sodipodi="http://sodipodi.sourceforge.net/DTD/sodipodi-0.dtd"
   xmlns:inkscape="http://www.inkscape.org/namespaces/inkscape"
   width="7.84722in"
   height="3in"
   viewBox="0 0 565 216"
   id="svg3032"
   version="1.1"
   inkscape:version="0.48.3.1 r9886"
   sodipodi:docname="lampara.svg">
  <g id="bombilloAnimacion">
  <path
     id="bombillo"
     style="fill:#ff0000;stroke:#000000;stroke-width:1"
     d="m 263.55007,114.525 c 0.71898,2.94932 0.10168,6.21107 -1.86604,8.55729 -2.02126,2.68324 -5.26826,4.51128 -6.28811,7.87188 -0.75146,2.97405 0.70526,6.03061 2.50189,8.33342 5.11458,6.27915 15.79625,6.89636 21.44702,1.02026 2.47599,-2.65157 3.80768,-6.53751 3.06208,-10.13059 -0.91913,-3.6007 -4.40872,-5.5659 -6.32285,-8.55838 -1.43997,-2.15961 -2.12756,-4.68993 -3.03399,-7.09388 -1.26666,0.31667 -2.53333,0.63334 -3.8,0.95 0.11092,2.27298 -0.29952,4.7497 0.88357,6.81358 1.08365,1.60241 3.05506,2.17846 4.81643,2.68642 0.17042,2.83628 2.17911,5.53077 1.28188,8.40794 -0.73685,1.91356 -2.79513,2.81844 -4.54767,3.58993 -3.00015,1.23589 -6.8579,1.25032 -9.31807,-1.11369 -1.23427,-1.14415 -2.05933,-2.66164 -2.61614,-4.23417 1.58333,-1.26667 3.16666,-2.53334 4.75,-3.8 0.63334,0.31666 1.26666,0.63333 1.9,0.95 0.95,-4.75001 1.9,-9.50001 2.85,-14.25001 -1.9,0 -3.8,0 -5.7,0 z m 7.6,10.45 c 0,3.48334 0,6.96667 0,10.45001 1.73102,-0.29959 3.9679,-1.00354 4.33662,-2.98507 0.23093,-2.29859 -1.403,-4.24601 -2.79273,-5.89176 -0.49053,-0.54735 -1.00742,-1.07086 -1.54389,-1.57318 z m -1.9,0.95001 c -0.86395,1.2267 -1.54262,2.85131 -0.36396,4.14002 0.53289,1.25188 0.32574,-0.18913 0.36396,-0.7329 0,-1.13571 0,-2.27142 0,-3.40712 z m -5.7,4.75 c -0.95,0.31666 -1.9,0.63333 -2.85,0.95 0.99314,2.24651 2.58935,4.78957 5.29494,5.01113 1.49311,0.10792 2.93504,-0.47989 4.20506,-1.21113 -1.225,-0.875 -2.45,-1.75 -3.675,-2.625 -0.32193,0.0893 -1.0886,1.01493 -1.075,0.4732 -0.10169,-0.47548 0.2493,-1.18464 -0.27367,-1.44265 -0.54211,-0.38519 -1.08422,-0.77037 -1.62633,-1.15555 z m 1.9,1.35 c 0.42923,0.16611 0.84659,0.92754 1.28495,0.63601 0.52169,-0.34533 1.04337,-0.69068 1.56505,-1.03601 -0.95,-0.31667 -1.9,-0.63334 -2.85,-0.95 0,0.45 0,0.9 0,1.35 z m 3.8,-0.4 c 0.27726,0.16557 0.8713,1.09593 0.95,0.78213 0.14242,-0.65493 -0.0821,-0.94293 -0.75537,-0.78213 -0.0649,0 -0.12975,0 -0.19463,0 z m 5.69971,-18.05113 5.69868,0.94978 -5.69868,0 c 0.75033,2.20349 1.2917,4.60644 2.5929,6.56298 2.03253,3.0583 5.52772,4.70142 6.51549,9.58329 0.4654,2.25098 0.11398,4.55894 -0.82631,6.64846 -3.79912,8.46254 -13.86679,10.3811 -21.65499,6.51549 -7.23732,-3.59017 -10.21013,-11.10293 -4.53995,-17.63742 2.00404,-2.31746 3.79913,-3.69464 6.5155,-5.02434 -0.82631,-4.42597 -0.4369,-4.50196 -3.79912,-7.59824 l 14.2467,0 0,-3.79912 z"
     inkscape:label="#bombillo">
    <animate atributeType="XML" attributeName="fill" 
        values="#ff0000;#00ff00;#0000ff;#ff0000" dur="4s"
        repeatCount="indefinite" begin="bombillo.mouseover" end="bombillo.mouseout" />
  </path>
  </g>
  
</svg>
